<?xml version="1.0" standalone="no"?>
<!DOCTYPE svg PUBLIC "-//W3C//DTD SVG 20010904//EN"
 "http://www.w3.org/TR/2001/REC-SVG-20010904/DTD/svg10.dtd">
<svg version="1.0" xmlns="http://www.w3.org/2000/svg"
 width="1280.000000pt" height="640.000000pt" viewBox="0 0 1280.000000 640.000000"
 preserveAspectRatio="xMidYMid meet">
<metadata>
Created by potrace 1.15, written by Peter Selinger 2001-2017
</metadata>
<g transform="translate(0.000000,640.000000) scale(0.100000,-0.100000)"
fill="#000000" stroke="none">
<path d="M2730 6293 c-193 -15 -465 -69 -652 -129 -1035 -332 -1795 -1203
-2012 -2304 -49 -250 -60 -367 -60 -660 0 -294 11 -412 60 -660 124 -621 448
-1221 878 -1626 447 -422 983 -684 1591 -780 137 -21 482 -30 631 -15 670 66
1230 335 1720 825 256 257 458 537 609 847 l57 116 311 -179 c404 -233 418
-240 494 -246 83 -6 159 29 208 97 69 94 70 109 67 550 l-4 394 234 -6 c128
-4 287 -7 353 -7 l120 0 265 -251 c146 -137 278 -257 294 -265 15 -9 39 -13
51 -10 13 3 177 162 364 353 l341 346 21 -19 c12 -10 146 -138 298 -283 152
-145 290 -272 306 -282 27 -17 52 -19 277 -19 147 0 258 4 275 10 15 6 171
153 345 327 l317 317 53 -46 c29 -24 131 -111 227 -191 l174 -147 86 1 c47 0
202 6 343 12 l257 12 73 70 c40 38 172 165 293 281 121 116 342 322 490 458
295 271 315 291 315 322 0 28 -42 134 -84 207 -119 212 -365 399 -766 583
l-105 48 -330 -2 c-301 -2 -1520 -11 -3995 -31 -509 -4 -928 -5 -932 -2 -3 4
-12 110 -18 236 -14 287 -22 352 -52 411 -75 151 -298 215 -459 133 -20 -10
-155 -115 -300 -234 -145 -118 -266 -215 -270 -215 -3 0 -15 21 -28 48 -38 78
-130 231 -198 330 -462 666 -1133 1111 -1873 1241 -199 35 -468 49 -660 34z"/>
</g>
</svg>
